<svg width="59" height="59" viewBox="0 0 59 59" fill="none" xmlns="http://www.w3.org/2000/svg"><mask id="a" maskUnits="userSpaceOnUse" x="0" y="0" width="59" height="59"><circle cx="29.5" cy="29.5" r="25.5" fill="#C4C4C4" stroke="#656565" stroke-width="8"/></mask><g mask="url(#a)"><circle cx="29.5" cy="29.5" r="27.5" stroke="#01ABA1" stroke-width="4"/><path fill="#fff" fill-opacity=".3" d="M23-11h36.22v39.637H23z" filter="url(#b)"/><path d="M21.128 28.002a2 2 0 0 0 .02 2.828l12.815 12.64a2 2 0 1 0 2.809-2.847L25.38 29.387l11.236-11.39a2 2 0 1 0-2.848-2.81l-12.64 12.815zm37.63-.844l-36.22.248.028 4 36.22-.248-.028-4z" fill="#01ABA1"/></g><defs><filter id="b" x="-87" y="-121" width="256.22" height="259.637" filterUnits="userSpaceOnUse" color-interpolation-filters="sRGB"><feFlood flood-opacity="0" result="BackgroundImageFix"/><feGaussianBlur in="BackgroundImage" stdDeviation="55"/><feComposite in2="SourceAlpha" operator="in" result="effect1_backgroundBlur"/><feBlend in="SourceGraphic" in2="effect1_backgroundBlur" result="shape"/></filter></defs></svg>