<svg width="51" height="51" viewBox="0 0 51 51" fill="none" xmlns="http://www.w3.org/2000/svg"><path d="M35.494 18.371a2.372 2.372 0 0 0 .78-2.618 2.364 2.364 0 0 0-1.773-1.554A24.67 24.67 0 0 0 36.438 9.1c.564-2.26.927-5.382-.545-7.42C34.89.292 33.674 0 32.833 0c-1.957 0-3.685 1.554-5.213 2.923-.51.457-1.245 1.117-1.677 1.379a25.99 25.99 0 0 1-1.442-.909C22.676 2.188 20.408.692 18.11.692c-.882 0-1.694.221-2.416.653-.686.415-1.526 1.304-1.616 3.197-.13 2.662 1.286 6.858 2.848 9.69a2.366 2.366 0 0 0-1.6 1.42 2.368 2.368 0 0 0 .721 2.702c-3.94 4.51-8.996 13.279-8.996 17.907C7.05 45.076 14.466 51 25.5 51c11.033 0 18.45-5.926 18.45-14.74 0-4.656-4.698-13.323-8.456-17.889zM17.672 4.325a1.17 1.17 0 0 1 .435-.074c1.228 0 3.079 1.22 4.429 2.113.902.594 1.681 1.107 2.397 1.394.304.122.63.184.967.184 1.447 0 2.678-1.098 4.09-2.369.784-.703 2.244-2.014 2.814-2.02.023.009.097.068.196.211 1.395 1.93-1.198 8.916-2.655 10.376-.66.111-2.201.323-4.246.323-2.116 0-4.314-.398-5.223-.585-1.408-1.584-3.74-7.959-3.204-9.553zM25.5 47.44c-6.87 0-14.889-2.927-14.889-11.18 0-3.714 5.503-13.165 9.062-16.582a31.53 31.53 0 0 0 1.8.284c.392.059.787.105 1.179.14l.137.016c.293.025.579.043.862.062 2.79.186 5.618.04 8.316-.451 3.488 3.677 8.422 12.71 8.422 16.532 0 8.252-8.017 11.179-14.889 11.179z" fill="#000"/><path d="M30.24 35.364c-.32-.411-.79-.794-1.41-1.152-.616-.353-1.443-.605-2.484-.76-1.672-.253-2.508-.766-2.508-1.545 0-.277.134-.532.404-.768.268-.236.654-.362 1.156-.362.347 0 .65.032.905.09.258.063.496.147.71.262.215.108.417.255.61.432.186.17.386.37.591.6h2.528v-3.76H28.23v.538c-.3-.18-.631-.323-1.002-.432v-1.36h-2.512v1.182c-.49.072-.94.212-1.352.42a4.005 4.005 0 0 0-1.077.791 3.333 3.333 0 0 0-.706 1.084 3.353 3.353 0 0 0-.252 1.293c0 .307.053.666.153 1.064.1.402.317.79.644 1.173.33.383.797.735 1.407 1.058.61.324 1.423.564 2.437.72.29.045.579.107.872.186.293.078.56.183.806.313.246.131.445.29.601.474a.98.98 0 0 1 .233.657c0 .3-.151.538-.448.725-.3.183-.676.277-1.13.277-.346 0-.653-.029-.921-.081a2.875 2.875 0 0 1-.738-.249 3.588 3.588 0 0 1-.644-.432 5.56 5.56 0 0 1-.634-.617h-2.512v3.763h2.512v-.56c.118.061.239.117.366.17.125.05.252.108.383.167v1.47h2.512V41.07a4.587 4.587 0 0 0 1.495-.34 3.967 3.967 0 0 0 1.192-.753c.333-.311.597-.673.787-1.084.193-.414.287-.86.287-1.336 0-.252-.042-.578-.134-.977-.09-.398-.293-.806-.615-1.217z" fill="#000"/></svg>