<svg width="51" height="51" viewBox="0 0 51 51" fill="none" xmlns="http://www.w3.org/2000/svg"><g clip-path="url(#a)" fill="#000"><path d="M47.278 15.996a.747.747 0 0 0 .747-.747v-2.806a3.094 3.094 0 0 0-3.09-3.09h-6.797V1.664A1.665 1.665 0 0 0 36.474 0H7.391a4.421 4.421 0 0 0-4.416 4.416v24.117a.747.747 0 1 0 1.494 0V4.416a2.925 2.925 0 0 1 2.922-2.922h1.85v37.453c-1.846 0-3.275-.215-4.772 1.108V32.02a.747.747 0 1 0-1.494 0v11.344a4.421 4.421 0 0 0 4.416 4.416h1.85v2.473c0 .594.662.95 1.158.624l2.49-1.64 2.49 1.64a.748.748 0 0 0 1.159-.624V47.78h19.936c.918 0 1.665-.747 1.665-1.664V32.31h6.795a3.094 3.094 0 0 0 3.09-3.09V18.734a.747.747 0 1 0-1.493 0V29.22c0 .88-.716 1.597-1.597 1.597H27.27c-.88 0-1.596-.717-1.596-1.597V24a.747.747 0 0 0-.392-.658l-4.648-2.51 4.648-2.509a.747.747 0 0 0 .392-.657v-5.222c0-.88.716-1.596 1.596-1.596h17.664c.88 0 1.597.716 1.597 1.596v2.806c0 .412.334.747.747.747zM7.39 46.285a2.923 2.923 0 0 1-2.912-3.142v-.003a2.933 2.933 0 0 1 2.509-2.67c.28-.04.315-.03 2.253-.03v5.845H7.39zm7.652 2.58L13.3 47.719a.748.748 0 0 0-.822 0l-1.743 1.148v-5.78h4.308v5.78zm21.601-2.75a.17.17 0 0 1-.17.17H16.538v-3.946a.747.747 0 0 0-.748-.747h-5.055v-1.151h25.91v5.674zM27.27 9.353a3.094 3.094 0 0 0-3.09 3.09v4.776l-4.477 2.417-.036.022a1.359 1.359 0 0 0 .036 2.369l4.477 2.417v4.776a3.094 3.094 0 0 0 3.09 3.09h9.374v6.637H10.735V1.494h25.74a.17.17 0 0 1 .17.17v7.689H27.27z"/><path d="M36.393 15.79a1.446 1.446 0 1 0-.463-2.856 1.446 1.446 0 0 0 .463 2.855zm-2.178 11.493a.747.747 0 1 0 0 1.494h5.229a.747.747 0 1 0 0-1.494h-1.868v-9.674a.747.747 0 0 0-.747-.747h-2.317a.747.747 0 1 0 0 1.494h1.57v8.927h-1.867z"/></g><defs><clipPath id="a"><path fill="#fff" d="M0 0h51v51H0z"/></clipPath></defs></svg>