<svg width="53" height="53" viewBox="0 0 53 53" fill="none" xmlns="http://www.w3.org/2000/svg"><path d="M29.709 0c-.857 0-1.553.695-1.553 1.553v21.841c0 .858.696 1.553 1.553 1.553h21.738c.858 0 1.553-.695 1.553-1.552C53 10.545 42.573 0 29.709 0zm1.553 21.842V3.165c9.898.76 17.821 8.727 18.574 18.677H31.262zm1.324 27.679L25.05 29.325V7.867c0-.857-.695-1.553-1.553-1.553C10.711 6.314 0 16.681 0 29.605 0 42.433 10.608 53 23.498 53c2.813 0 5.565-.499 8.18-1.483a1.553 1.553 0 0 0 .908-1.996zm-9.088.373c-11.244 0-20.393-9.101-20.393-20.288 0-10.614 8.318-19.34 18.84-20.128v20.127c0 .186.033.37.098.543L29.114 49.1c-1.817.528-3.7.794-5.616.794z" fill="#000"/><path d="M51.447 28.053H29.71a1.552 1.552 0 0 0-1.455 2.095l7.633 20.459a1.553 1.553 0 0 0 2.002.91C46.927 48.117 53 39.311 53 29.605c0-.857-.695-1.552-1.553-1.552zM38.231 48.005l-6.286-16.857h17.89c-.562 7.276-5.032 13.777-11.604 16.857z" fill="#000"/></svg>