<svg width="60" height="60" viewBox="0 0 60 60" fill="none" xmlns="http://www.w3.org/2000/svg"><path d="M20.883 22.5H38.46a.703.703 0 1 0 0-1.406H20.883a.703.703 0 1 0 0 1.406zm-7.1-.833L12.22 23.16l-.634-.633a.703.703 0 1 0-.994.994l1.12 1.12a.703.703 0 0 0 .983.01l2.059-1.968a.702.702 0 0 0-.47-1.214.703.703 0 0 0-.502.198z" fill="#000"/><path d="M12.68 18.387a4.772 4.772 0 1 0 0 9.544 4.772 4.772 0 0 0 0-9.544zm0 8.138a3.366 3.366 0 1 1 0-6.732 3.366 3.366 0 0 1 0 6.732zm8.203 7.694H38.46a.703.703 0 1 0 0-1.407H20.883a.703.703 0 0 0 0 1.407zm-7.1-.834L12.22 34.88l-.634-.634a.701.701 0 0 0-1.154.224.701.701 0 0 0 .16.77l1.12 1.12a.702.702 0 0 0 .983.012l2.059-1.97a.702.702 0 1 0-.972-1.016z" fill="#000"/><path d="M12.68 30.105a4.773 4.773 0 1 0 0 9.546 4.773 4.773 0 0 0 0-9.546zm0 8.138a3.366 3.366 0 1 1 0-6.733 3.366 3.366 0 0 1 0 6.734zm1.103 6.861l-1.562 1.494-.634-.634a.703.703 0 1 0-.994.994l1.12 1.12a.703.703 0 0 0 .983.011l2.059-1.968a.703.703 0 1 0-.972-1.017z" fill="#000"/><path d="M12.68 41.824a4.772 4.772 0 1 0 0 9.544 4.772 4.772 0 0 0 0-9.544zm0 8.138a3.366 3.366 0 1 1 0-6.732 3.366 3.366 0 0 1 0 6.733zm8.203-25.118h9.375a.703.703 0 0 0 0-1.407h-9.375a.703.703 0 0 0 0 1.407zm0 11.719h9.375a.703.703 0 0 0 0-1.407h-9.375a.703.703 0 0 0 0 1.407zM6.914 11.027a.703.703 0 0 0-.703.704v.738a.703.703 0 0 0 1.406 0v-.739a.703.703 0 0 0-.703-.703zm0 2.964a.703.703 0 0 0-.703.703v6.797a.703.703 0 0 0 1.406 0v-6.797a.703.703 0 0 0-.703-.703z" fill="#000"/><path d="M53.586 31.371a3.635 3.635 0 0 0-2.75.525l-7.242 4.756V10.27c0-2.327-1.912-4.175-4.238-4.175h-4.434V3.91a.703.703 0 0 0-1.406 0v2.183h-5.977V3.91a.703.703 0 0 0-1.406 0v2.183h-5.86V3.91a.703.703 0 1 0-1.406 0v2.183h-5.976V3.91a.703.703 0 0 0-1.407 0v2.183H7.715a4.17 4.17 0 0 0-4.2 4.175v42.304c0 2.327 1.874 4.263 4.2 4.263h31.64c2.327 0 4.239-1.936 4.239-4.263v-7.167l11.26-7.395a3.658 3.658 0 0 0-1.268-6.64zM34.18 10.497a1.244 1.244 0 1 1 0 2.487 1.244 1.244 0 0 1 0-2.487zm-7.327 0a1.243 1.243 0 1 1 0 2.486 1.243 1.243 0 0 1 0-2.486zm-7.327 0a1.242 1.242 0 1 1 0 2.484 1.242 1.242 0 0 1 0-2.484zm-7.327 0a1.243 1.243 0 1 1 0 2.485 1.243 1.243 0 0 1 0-2.485zm29.99 42.076a2.87 2.87 0 0 1-2.832 2.857H7.716c-1.552 0-2.794-1.306-2.794-2.857V10.27A2.762 2.762 0 0 1 7.715 7.5h3.77v1.686c-1.055.309-1.942 1.337-1.942 2.555a2.649 2.649 0 1 0 5.298 0 2.6 2.6 0 0 0-1.95-2.555V7.5h5.976v1.686a2.616 2.616 0 0 0-1.969 2.555 2.653 2.653 0 0 0 5.305 0 2.719 2.719 0 0 0-1.93-2.555V7.5h5.86v1.686c-1.055.309-1.939 1.337-1.939 2.555a2.648 2.648 0 1 0 5.297 0 2.602 2.602 0 0 0-1.952-2.555V7.5h5.977v1.686a2.614 2.614 0 0 0-1.967 2.555 2.652 2.652 0 0 0 5.304 0c0-1.218-.876-2.246-1.931-2.555V7.5h4.434c1.55 0 2.831 1.218 2.831 2.769v27.307l-2.64 1.734a.702.702 0 0 0 .771 1.175l10.456-6.866.85 1.295L33.91 46.547l-.85-1.295 3.328-2.185a.704.704 0 0 0-.772-1.175l-3.913 2.569-.02.016a.835.835 0 0 0-.053.04l-.016.014H20.883a.703.703 0 1 0 0 1.407h9.939l-.498.94a.714.714 0 0 0-.066-.003h-9.375a.703.703 0 0 0 0 1.406h8.698l-.813 1.536a.703.703 0 0 0 .621 1.032h.019l5.942-.156.043-.003c.014-.002.03-.002.046-.005l.054-.012c.014-.003.027-.005.04-.009a.694.694 0 0 0 .09-.034c.008-.003.014-.008.021-.012a.683.683 0 0 0 .067-.036l.007-.004 6.47-4.249v6.244zm-8.138-3.252l-3.476.09 1.577-2.98 1.9 2.89zm1.483-.304l-.054-.082-.797-1.213L52.396 36.09l.85 1.294-17.713 11.633zM54.402 36.58l-2.433-3.702a2.27 2.27 0 0 1 1.884.056 2.259 2.259 0 0 1 .549 3.645z" fill="#000"/></svg>