<svg width="54" height="54" viewBox="0 0 54 54" fill="none" xmlns="http://www.w3.org/2000/svg"><path d="M47.509 38.91c-1.405-2.097-3.327-4.967-3.327-13.137V22.09c0-7.768-5.185-14.34-12.273-16.458v-.724A4.915 4.915 0 0 0 27 0a4.915 4.915 0 0 0-4.91 4.91v.723C15.005 7.75 9.819 14.323 9.819 22.09v3.682c0 8.17-1.922 11.04-3.327 13.137-.813 1.214-1.582 2.36-1.582 4.045 0 4 8.341 5.405 15.104 5.888C20.96 51.88 23.744 54 27 54s6.04-2.121 6.987-5.157c6.763-.483 15.104-1.887 15.104-5.889 0-1.683-.77-2.83-1.582-4.044zm-22.964-34c0-1.354 1.1-2.455 2.455-2.455a2.457 2.457 0 0 1 2.455 2.454v.196A17.164 17.164 0 0 0 27 4.91c-.835 0-1.65.08-2.454.196V4.91zM27 51.544a4.866 4.866 0 0 1-4.282-2.548c1.739.074 3.249.094 4.282.094 1.034 0 2.544-.02 4.283-.094A4.867 4.867 0 0 1 27 51.545zm0-4.909c-11.24 0-19.636-1.944-19.636-3.681 0-.898.378-1.503 1.167-2.68 1.489-2.224 3.742-5.585 3.742-14.502V22.09c0-8.121 6.606-14.727 14.727-14.727S41.727 13.97 41.727 22.09v3.682c0 8.917 2.254 12.278 3.742 14.503.789 1.176 1.167 1.78 1.167 2.678 0 1.739-8.396 3.682-19.636 3.682z" fill="#000"/></svg>