<svg xmlns="http://www.w3.org/2000/svg" width="512" height="512" viewBox="0 0 512 512"><g xmlns="http://www.w3.org/2000/svg" fill="#1db4ab"><path d="M256 0C114.618 0 0 114.618 0 256s114.618 256 256 256 256-114.618 256-256S397.382 0 256 0zm0 469.333c-117.818 0-213.333-95.515-213.333-213.333S138.182 42.667 256 42.667 469.333 138.182 469.333 256 373.818 469.333 256 469.333z" data-original="#000000"/><path d="M426.667 213.333c-11.782 0-21.333 9.551-21.333 21.333 0 35.386-28.614 64-64 64H234.667v-64c0-17.039-18.99-27.202-33.167-17.75l-128 85.333c-12.666 8.444-12.666 27.057 0 35.501l128 85.333c14.177 9.451 33.167-.712 33.167-17.75v-64h106.667c58.95 0 106.667-47.717 106.667-106.667-.001-11.781-9.552-21.333-21.334-21.333zM192 365.472L123.793 320 192 274.528v90.944z" data-original="#000000"/></g></svg>