<svg width="53" height="53" viewBox="0 0 53 53" fill="none" xmlns="http://www.w3.org/2000/svg"><g clip-path="url(#a)" fill="#000"><path d="M28.163 53h-3.326a4.885 4.885 0 0 1-4.88-4.879v-1.125a21.391 21.391 0 0 1-3.322-1.38l-.797.798c-1.932 1.934-5.026 1.877-6.901 0l-2.351-2.352c-1.879-1.876-1.933-4.97 0-6.9l.797-.797a21.396 21.396 0 0 1-1.379-3.323H4.88A4.885 4.885 0 0 1 0 28.163v-3.326a4.885 4.885 0 0 1 4.88-4.88h1.124a21.401 21.401 0 0 1 1.38-3.322l-.798-.797c-1.932-1.93-1.879-5.023 0-6.901l2.352-2.351a4.879 4.879 0 0 1 6.9 0l.797.797a21.415 21.415 0 0 1 3.323-1.379V4.88A4.885 4.885 0 0 1 24.837 0h3.326a4.885 4.885 0 0 1 4.88 4.879v1.125c1.143.366 2.254.827 3.322 1.38l.797-.798c1.932-1.934 5.026-1.877 6.901 0l2.351 2.352c1.879 1.876 1.933 4.97 0 6.9l-.797.797a21.393 21.393 0 0 1 1.379 3.323h1.125A4.885 4.885 0 0 1 53 24.837v3.326a4.885 4.885 0 0 1-4.88 4.88h-1.124a21.397 21.397 0 0 1-1.38 3.322l.798.797c1.932 1.93 1.879 5.024 0 6.901l-2.352 2.351a4.878 4.878 0 0 1-6.9 0l-.797-.797a21.41 21.41 0 0 1-3.323 1.379v1.125A4.884 4.884 0 0 1 28.163 53zM17.154 42.355c1.483.878 3.08 1.54 4.744 1.97a1.553 1.553 0 0 1 1.165 1.503v2.293c0 .978.796 1.773 1.774 1.773h3.326c.978 0 1.774-.795 1.774-1.773v-2.293c0-.708.479-1.326 1.165-1.503a18.304 18.304 0 0 0 4.744-1.97 1.553 1.553 0 0 1 1.888.24l1.624 1.623c.7.701 1.825.685 2.508 0l2.352-2.352a1.773 1.773 0 0 0 .001-2.507l-1.625-1.625a1.553 1.553 0 0 1-.238-1.888 18.3 18.3 0 0 0 1.969-4.744 1.553 1.553 0 0 1 1.503-1.165h2.293c.978 0 1.774-.796 1.774-1.774v-3.326c0-.978-.796-1.774-1.774-1.774h-2.293a1.552 1.552 0 0 1-1.503-1.164 18.304 18.304 0 0 0-1.97-4.745 1.553 1.553 0 0 1 .24-1.888l1.623-1.624a1.773 1.773 0 0 0 .001-2.508l-2.352-2.352a1.773 1.773 0 0 0-2.508 0l-1.625 1.624c-.5.501-1.278.6-1.888.239a18.305 18.305 0 0 0-4.744-1.97 1.553 1.553 0 0 1-1.165-1.503V4.879c0-.978-.796-1.774-1.774-1.774h-3.326c-.978 0-1.774.796-1.774 1.774v2.293c0 .708-.479 1.326-1.164 1.503a18.304 18.304 0 0 0-4.745 1.97c-.61.36-1.387.262-1.888-.24l-1.624-1.623a1.773 1.773 0 0 0-2.508 0l-2.352 2.352a1.773 1.773 0 0 0 0 2.507l1.624 1.625c.501.501.6 1.278.239 1.888a18.3 18.3 0 0 0-1.97 4.744 1.553 1.553 0 0 1-1.503 1.165H4.879c-.978 0-1.774.796-1.774 1.774v3.326c0 .978.796 1.774 1.774 1.774h2.293c.708 0 1.326.479 1.503 1.164a18.304 18.304 0 0 0 1.97 4.745c.36.61.262 1.387-.24 1.888l-1.623 1.624a1.773 1.773 0 0 0 0 2.508l2.351 2.352a1.773 1.773 0 0 0 2.508 0l1.625-1.624c.37-.37 1.138-.683 1.888-.239z"/><path d="M26.5 38.032c-6.359 0-11.532-5.173-11.532-11.532S20.141 14.968 26.5 14.968 38.032 20.141 38.032 26.5c0 6.358-5.173 11.532-11.532 11.532zm0-19.958c-4.646 0-8.426 3.78-8.426 8.426 0 4.646 3.78 8.426 8.426 8.426 4.646 0 8.426-3.78 8.426-8.426 0-4.646-3.78-8.426-8.426-8.426z"/></g><defs><clipPath id="a"><path fill="#fff" d="M0 0h53v53H0z"/></clipPath></defs></svg>