<svg width="51" height="51" viewBox="0 0 51 51" fill="none" xmlns="http://www.w3.org/2000/svg"><path d="M42.434 49.405H8.566a4.587 4.587 0 0 1-4.582-4.583V20.715a1.594 1.594 0 1 1 3.188 0v24.107c0 .77.625 1.395 1.394 1.395h33.868c.769 0 1.394-.625 1.394-1.395V20.715a1.594 1.594 0 1 1 3.188 0v24.107a4.587 4.587 0 0 1-4.582 4.583z" fill="#000"/><path d="M45.67 21.814a1.34 1.34 0 0 1-.95-.393L27.996 4.713a3.536 3.536 0 0 0-4.992 0L6.28 21.421a1.345 1.345 0 0 1-1.902 0 1.342 1.342 0 0 1 0-1.9L21.102 2.813a6.23 6.23 0 0 1 8.796 0l16.724 16.708a1.342 1.342 0 0 1-.951 2.293zm-13.795 27.59h-12.75c-.88 0-1.594-.713-1.594-1.593V33.666a4.986 4.986 0 0 1 4.98-4.98h5.977a4.986 4.986 0 0 1 4.98 4.98v14.145c0 .88-.713 1.593-1.593 1.593zm-11.156-3.187h9.562v-12.55c0-.99-.804-1.794-1.793-1.794h-5.976c-.989 0-1.793.805-1.793 1.793v12.551z" fill="#000"/></svg>