<svg xmlns="http://www.w3.org/2000/svg" viewBox="0 0 213.445 213.445"><path d="M14.749 95.514l86.536 86.536c12.744 12.749 35.784 24.476 53.586 27.288l23.111 3.65a36.4 36.4 0 0 0 5.706.457c9.143 0 17.236-3.573 22.779-10.062 5.733-6.712 8.05-15.735 6.521-25.406l-3.65-23.105c-2.812-17.802-14.539-40.842-27.288-53.586L95.513 14.749l-.098.098C73.028-5.517 38.289-4.951 16.669 16.669c-21.62 21.615-22.186 56.36-1.828 78.741l-.092.104zm167.729 63.599l3.65 23.105c.326 2.067-.06 3.171-.337 3.497-.294.343-1.773.696-3.568.413l-23.111-3.65c-11.982-1.893-30.018-11.079-38.601-19.657L53.214 95.514l42.305-42.305 67.308 67.303c8.572 8.577 17.759 26.613 19.651 38.601zM27.144 57.054c0-7.99 3.111-15.507 8.762-21.158 11.003-11.003 28.452-11.487 40.189-1.73L34.171 76.091c-4.47-5.357-7.027-11.971-7.027-19.037z" fill="#010002"/></svg>